<?xml version="1.0" encoding="UTF-8" standalone="no"?>
<!-- Created with Inkscape (http://www.inkscape.org/) -->

<svg
   width="600"
   height="600"
   viewBox="0 0 158.75 158.75"
   version="1.1"
   id="svg5"
   inkscape:export-filename="/home/lrills/Workspace/holo-pomodoro/media/avatar.png"
   inkscape:export-xdpi="105.22256"
   inkscape:export-ydpi="105.22256"
   sodipodi:docname="avatar.svg"
   inkscape:version="1.1.1 (eb90963e84, 2021-10-02)"
   xmlns:inkscape="http://www.inkscape.org/namespaces/inkscape"
   xmlns:sodipodi="http://sodipodi.sourceforge.net/DTD/sodipodi-0.dtd"
   xmlns="http://www.w3.org/2000/svg"
   xmlns:svg="http://www.w3.org/2000/svg">
  <sodipodi:namedview
     id="namedview7"
     pagecolor="#ffffff"
     bordercolor="#666666"
     borderopacity="1.0"
     inkscape:pageshadow="2"
     inkscape:pageopacity="0.0"
     inkscape:pagecheckerboard="0"
     inkscape:document-units="mm"
     showgrid="false"
     inkscape:zoom="0.29857056"
     inkscape:cx="396.89111"
     inkscape:cy="326.55598"
     inkscape:window-width="1856"
     inkscape:window-height="1019"
     inkscape:window-x="0"
     inkscape:window-y="24"
     inkscape:window-maximized="1"
     inkscape:current-layer="layer1"
     units="px"
     width="600px" />
  <defs
     id="defs2" />
  <g
     inkscape:label="Layer 1"
     inkscape:groupmode="layer"
     id="layer1"
     style="display:inline">
    <g
       style="overflow:hidden;fill:currentColor"
       id="g12650"
       transform="matrix(0.167677,0,0,0.16860727,-5.2958926,-9.7962783)">
      <path
         d="M 473.42,283.38 C 472,240.75 491.19,198 510.45,161 c 8.82,-16.94 18.48,-33.44 28.79,-49.51 6.53,-10.19 11.43,-23.31 24.78,-25.36 7.75,-1.18 18.09,0 22.42,7.5 4.33,7.5 -0.44,15.37 -3.56,22.23 -6.2,13.74 -12.35,27.52 -18,41.48 -12.29,30.12 -27.37,66.39 -22.88,99.66 1.37,10.18 5.29,20.2 13.87,26.4 -0.02,-0.02 -81.87,17.89 -82.45,-0.02 z"
         fill="#0db528"
         id="path12632" />
      <path
         d="m 545.05,291.34 c 0,0 42.82,-1.24 94.21,-69.76 51.39,-68.52 105.63,-52.81 105.63,-52.81 0,0 -42.82,-22.84 -127,35.68 -84.18,58.52 -72.84,86.89 -72.84,86.89 z"
         fill="#0c8e1b"
         id="path12634" />
      <path
         d="m 375.9,82.28 c 0,0 18.56,141.32 118.48,187 l -38.54,25.5 c 0,0 -82.79,-112.58 -79.94,-212.5 z"
         fill="#0c961d"
         id="path12636" />
      <path
         d="m 936.93,552.59 c 0,249.2 -190.25,389.13 -424.93,389.13 -234.68,0 -424.93,-139.93 -424.93,-389.13 0,-147.1 66.29,-239.35 168.87,-290.26 a 222.71,222.71 0 0 1 112.55,-23 c 41.92,2.44 77.69,18.87 118,27.93 53,11.94 104.39,-9.25 156.38,-16.43 58,-8 121.37,3.85 169.66,37.83 76.84,54.09 124.4,139.34 124.4,263.93 z"
         fill="#e22a1b"
         id="path12638" />
    </g>
    <g
       id="g16852"
       transform="matrix(1.040257,0,0,1.040257,-5.4699686,-6.0987808)">
      <path
         sodipodi:type="star"
         style="opacity:1;fill:#008080;stroke:#008080;stroke-width:29.0325;stroke-linecap:round;stroke-linejoin:round;stroke-miterlimit:4;stroke-dasharray:none;stroke-opacity:0.997839;paint-order:stroke fill markers"
         id="path16340-7"
         inkscape:flatsided="false"
         sodipodi:sides="3"
         sodipodi:cx="156.87424"
         sodipodi:cy="-45.297062"
         sodipodi:r1="91.917404"
         sodipodi:r2="45.958702"
         sodipodi:arg1="2.6257225"
         sodipodi:arg2="3.6729201"
         inkscape:rounded="0"
         inkscape:randomized="0"
         transform="matrix(7.7284674e-4,0.39029878,-0.29231956,0.00103188,69.703856,31.092877)"
         inkscape:transform-center-x="-3.9877977"
         inkscape:transform-center-y="-0.081441836"
         d="m 76.918613,0.0450537 40.333007,-68.6283897 40.333,-68.628384 39.26743,69.243602 39.26742,69.2435995 -79.60043,-0.61521394 z" />
      <path
         sodipodi:type="star"
         style="opacity:1;fill:#00ffff;stroke:#00ffff;stroke-width:29.0325;stroke-linecap:round;stroke-linejoin:round;stroke-miterlimit:4;stroke-dasharray:none;stroke-opacity:0.997839;paint-order:stroke fill markers"
         id="path16340"
         inkscape:flatsided="false"
         sodipodi:sides="3"
         sodipodi:cx="156.87424"
         sodipodi:cy="-45.297062"
         sodipodi:r1="91.917404"
         sodipodi:r2="45.958702"
         sodipodi:arg1="2.6257225"
         sodipodi:arg2="3.6729201"
         inkscape:rounded="0"
         inkscape:randomized="0"
         d="m 76.918613,0.0450537 40.333007,-68.6283897 40.333,-68.628384 39.26743,69.243602 39.26742,69.2435995 -79.60043,-0.61521394 z"
         transform="matrix(7.0684471e-4,0.3569668,-0.26735512,9.437566e-4,73.029376,29.997907)"
         inkscape:transform-center-x="-3.6472351"
         inkscape:transform-center-y="-0.074486954" />
    </g>
  </g>
</svg>
